<svg width="626" height="461" viewBox="0 0 626 461" fill="none" xmlns="http://www.w3.org/2000/svg">
<g filter="url(#filter0_d_21_4)">
<path d="M60.3182 264.091C55.2727 264.091 50.9205 262.977 47.2614 260.75C43.625 258.5 40.8182 255.364 38.8409 251.341C36.8864 247.295 35.9091 242.591 35.9091 237.227C35.9091 231.864 36.8864 227.136 38.8409 223.045C40.8182 218.932 43.5682 215.727 47.0909 213.432C50.6364 211.114 54.7727 209.955 59.5 209.955C62.2273 209.955 64.9205 210.409 67.5795 211.318C70.2386 212.227 72.6591 213.705 74.8409 215.75C77.0227 217.773 78.7614 220.455 80.0568 223.795C81.3523 227.136 82 231.25 82 236.136V239.545H41.6364V232.591H73.8182C73.8182 229.636 73.2273 227 72.0455 224.682C70.8864 222.364 69.2273 220.534 67.0682 219.193C64.9318 217.852 62.4091 217.182 59.5 217.182C56.2955 217.182 53.5227 217.977 51.1818 219.568C48.8636 221.136 47.0795 223.182 45.8295 225.705C44.5795 228.227 43.9545 230.932 43.9545 233.818V238.455C43.9545 242.409 44.6364 245.761 46 248.511C47.3864 251.239 49.3068 253.318 51.7614 254.75C54.2159 256.159 57.0682 256.864 60.3182 256.864C62.4318 256.864 64.3409 256.568 66.0455 255.977C67.7727 255.364 69.2614 254.455 70.5114 253.25C71.7614 252.023 72.7273 250.5 73.4091 248.682L81.1818 250.864C80.3636 253.5 78.9886 255.818 77.0568 257.818C75.125 259.795 72.7386 261.341 69.8977 262.455C67.0568 263.545 63.8636 264.091 60.3182 264.091ZM135.463 210.636L116.099 263H107.918L88.554 210.636H97.2812L111.736 252.364H112.281L126.736 210.636H135.463ZM159.898 264.227C156.58 264.227 153.568 263.602 150.864 262.352C148.159 261.08 146.011 259.25 144.42 256.864C142.83 254.455 142.034 251.545 142.034 248.136C142.034 245.136 142.625 242.705 143.807 240.841C144.989 238.955 146.568 237.477 148.545 236.409C150.523 235.341 152.705 234.545 155.091 234.023C157.5 233.477 159.92 233.045 162.352 232.727C165.534 232.318 168.114 232.011 170.091 231.807C172.091 231.58 173.545 231.205 174.455 230.682C175.386 230.159 175.852 229.25 175.852 227.955V227.682C175.852 224.318 174.932 221.705 173.091 219.841C171.273 217.977 168.511 217.045 164.807 217.045C160.966 217.045 157.955 217.886 155.773 219.568C153.591 221.25 152.057 223.045 151.17 224.955L143.534 222.227C144.898 219.045 146.716 216.568 148.989 214.795C151.284 213 153.784 211.75 156.489 211.045C159.216 210.318 161.898 209.955 164.534 209.955C166.216 209.955 168.148 210.159 170.33 210.568C172.534 210.955 174.659 211.761 176.705 212.989C178.773 214.216 180.489 216.068 181.852 218.545C183.216 221.023 183.898 224.341 183.898 228.5V263H175.852V255.909H175.443C174.898 257.045 173.989 258.261 172.716 259.557C171.443 260.852 169.75 261.955 167.636 262.864C165.523 263.773 162.943 264.227 159.898 264.227ZM161.125 257C164.307 257 166.989 256.375 169.17 255.125C171.375 253.875 173.034 252.261 174.148 250.284C175.284 248.307 175.852 246.227 175.852 244.045V236.682C175.511 237.091 174.761 237.466 173.602 237.807C172.466 238.125 171.148 238.409 169.648 238.659C168.17 238.886 166.727 239.091 165.318 239.273C163.932 239.432 162.807 239.568 161.943 239.682C159.852 239.955 157.898 240.398 156.08 241.011C154.284 241.602 152.83 242.5 151.716 243.705C150.625 244.886 150.08 246.5 150.08 248.545C150.08 251.341 151.114 253.455 153.182 254.886C155.273 256.295 157.92 257 161.125 257ZM206.628 231.5V263H198.582V210.636H206.355V218.818H207.037C208.264 216.159 210.128 214.023 212.628 212.409C215.128 210.773 218.355 209.955 222.31 209.955C225.855 209.955 228.957 210.682 231.616 212.136C234.276 213.568 236.344 215.75 237.821 218.682C239.298 221.591 240.037 225.273 240.037 229.727V263H231.991V230.273C231.991 226.159 230.923 222.955 228.787 220.659C226.651 218.341 223.719 217.182 219.991 217.182C217.423 217.182 215.128 217.739 213.105 218.852C211.105 219.966 209.526 221.591 208.366 223.727C207.207 225.864 206.628 228.455 206.628 231.5ZM276.011 264.091C271.102 264.091 266.875 262.932 263.33 260.614C259.784 258.295 257.057 255.102 255.148 251.034C253.239 246.966 252.284 242.318 252.284 237.091C252.284 231.773 253.261 227.08 255.216 223.011C257.193 218.92 259.943 215.727 263.466 213.432C267.011 211.114 271.148 209.955 275.875 209.955C279.557 209.955 282.875 210.636 285.83 212C288.784 213.364 291.205 215.273 293.091 217.727C294.977 220.182 296.148 223.045 296.602 226.318H288.557C287.943 223.932 286.58 221.818 284.466 219.977C282.375 218.114 279.557 217.182 276.011 217.182C272.875 217.182 270.125 218 267.761 219.636C265.42 221.25 263.591 223.534 262.273 226.489C260.977 229.42 260.33 232.864 260.33 236.818C260.33 240.864 260.966 244.386 262.239 247.386C263.534 250.386 265.352 252.716 267.693 254.375C270.057 256.034 272.83 256.864 276.011 256.864C278.102 256.864 280 256.5 281.705 255.773C283.409 255.045 284.852 254 286.034 252.636C287.216 251.273 288.057 249.636 288.557 247.727H296.602C296.148 250.818 295.023 253.602 293.227 256.08C291.455 258.534 289.102 260.489 286.17 261.943C283.261 263.375 279.875 264.091 276.011 264.091ZM341.364 241.591V210.636H349.409V263H341.364V254.136H340.818C339.591 256.795 337.682 259.057 335.091 260.92C332.5 262.761 329.227 263.682 325.273 263.682C322 263.682 319.091 262.966 316.545 261.534C314 260.08 312 257.898 310.545 254.989C309.091 252.057 308.364 248.364 308.364 243.909V210.636H316.409V243.364C316.409 247.182 317.477 250.227 319.614 252.5C321.773 254.773 324.523 255.909 327.864 255.909C329.864 255.909 331.898 255.398 333.966 254.375C336.057 253.352 337.807 251.784 339.216 249.67C340.648 247.557 341.364 244.864 341.364 241.591ZM364.145 263V210.636H371.918V218.545H372.463C373.418 215.955 375.145 213.852 377.645 212.239C380.145 210.625 382.963 209.818 386.099 209.818C386.69 209.818 387.429 209.83 388.315 209.852C389.202 209.875 389.872 209.909 390.327 209.955V218.136C390.054 218.068 389.429 217.966 388.452 217.83C387.497 217.67 386.486 217.591 385.418 217.591C382.872 217.591 380.599 218.125 378.599 219.193C376.622 220.239 375.054 221.693 373.895 223.557C372.759 225.398 372.19 227.5 372.19 229.864V263H364.145ZM420.224 264.091C415.179 264.091 410.827 262.977 407.168 260.75C403.531 258.5 400.724 255.364 398.747 251.341C396.793 247.295 395.815 242.591 395.815 237.227C395.815 231.864 396.793 227.136 398.747 223.045C400.724 218.932 403.474 215.727 406.997 213.432C410.543 211.114 414.679 209.955 419.406 209.955C422.134 209.955 424.827 210.409 427.486 211.318C430.145 212.227 432.565 213.705 434.747 215.75C436.929 217.773 438.668 220.455 439.963 223.795C441.259 227.136 441.906 231.25 441.906 236.136V239.545H401.543V232.591H433.724C433.724 229.636 433.134 227 431.952 224.682C430.793 222.364 429.134 220.534 426.974 219.193C424.838 217.852 422.315 217.182 419.406 217.182C416.202 217.182 413.429 217.977 411.088 219.568C408.77 221.136 406.986 223.182 405.736 225.705C404.486 228.227 403.861 230.932 403.861 233.818V238.455C403.861 242.409 404.543 245.761 405.906 248.511C407.293 251.239 409.213 253.318 411.668 254.75C414.122 256.159 416.974 256.864 420.224 256.864C422.338 256.864 424.247 256.568 425.952 255.977C427.679 255.364 429.168 254.455 430.418 253.25C431.668 252.023 432.634 250.5 433.315 248.682L441.088 250.864C440.27 253.5 438.895 255.818 436.963 257.818C435.031 259.795 432.645 261.341 429.804 262.455C426.963 263.545 423.77 264.091 420.224 264.091ZM476.918 210.636V217.455H449.781V210.636H476.918ZM457.69 198.091H465.736V248C465.736 250.273 466.065 251.977 466.724 253.114C467.406 254.227 468.27 254.977 469.315 255.364C470.384 255.727 471.509 255.909 472.69 255.909C473.577 255.909 474.304 255.864 474.872 255.773C475.44 255.659 475.895 255.568 476.236 255.5L477.872 262.727C477.327 262.932 476.565 263.136 475.588 263.341C474.611 263.568 473.372 263.682 471.872 263.682C469.599 263.682 467.372 263.193 465.19 262.216C463.031 261.239 461.236 259.75 459.804 257.75C458.395 255.75 457.69 253.227 457.69 250.182V198.091ZM509.73 264.091C505.003 264.091 500.855 262.966 497.287 260.716C493.741 258.466 490.969 255.318 488.969 251.273C486.991 247.227 486.003 242.5 486.003 237.091C486.003 231.636 486.991 226.875 488.969 222.807C490.969 218.739 493.741 215.58 497.287 213.33C500.855 211.08 505.003 209.955 509.73 209.955C514.457 209.955 518.594 211.08 522.139 213.33C525.707 215.58 528.48 218.739 530.457 222.807C532.457 226.875 533.457 231.636 533.457 237.091C533.457 242.5 532.457 247.227 530.457 251.273C528.48 255.318 525.707 258.466 522.139 260.716C518.594 262.966 514.457 264.091 509.73 264.091ZM509.73 256.864C513.321 256.864 516.276 255.943 518.594 254.102C520.912 252.261 522.628 249.841 523.741 246.841C524.855 243.841 525.412 240.591 525.412 237.091C525.412 233.591 524.855 230.33 523.741 227.307C522.628 224.284 520.912 221.841 518.594 219.977C516.276 218.114 513.321 217.182 509.73 217.182C506.139 217.182 503.185 218.114 500.866 219.977C498.548 221.841 496.832 224.284 495.719 227.307C494.605 230.33 494.048 233.591 494.048 237.091C494.048 240.591 494.605 243.841 495.719 246.841C496.832 249.841 498.548 252.261 500.866 254.102C503.185 255.943 506.139 256.864 509.73 256.864ZM553.784 231.5V263H545.739V210.636H553.511V218.818H554.193C555.42 216.159 557.284 214.023 559.784 212.409C562.284 210.773 565.511 209.955 569.466 209.955C573.011 209.955 576.114 210.682 578.773 212.136C581.432 213.568 583.5 215.75 584.977 218.682C586.455 221.591 587.193 225.273 587.193 229.727V263H579.148V230.273C579.148 226.159 578.08 222.955 575.943 220.659C573.807 218.341 570.875 217.182 567.148 217.182C564.58 217.182 562.284 217.739 560.261 218.852C558.261 219.966 556.682 221.591 555.523 223.727C554.364 225.864 553.784 228.455 553.784 231.5Z" fill="black"/>
</g>
<g filter="url(#filter1_f_21_4)">
<ellipse cx="312.558" cy="230.113" rx="290" ry="110.5" transform="rotate(-27 312.558 230.113)" fill="#216417"/>
</g>
<g filter="url(#filter2_d_21_4)">
<mask id="mask0_21_4" style="mask-type:alpha" maskUnits="userSpaceOnUse" x="36" y="198" width="552" height="67">
<path d="M60.5526 264.091C55.5071 264.091 51.1548 262.977 47.4957 260.75C43.8594 258.5 41.0526 255.364 39.0753 251.341C37.1207 247.295 36.1435 242.591 36.1435 237.227C36.1435 231.864 37.1207 227.136 39.0753 223.045C41.0526 218.932 43.8026 215.727 47.3253 213.432C50.8707 211.114 55.0071 209.955 59.7344 209.955C62.4616 209.955 65.1548 210.409 67.8139 211.318C70.473 212.227 72.8935 213.705 75.0753 215.75C77.2571 217.773 78.9957 220.455 80.2912 223.795C81.5866 227.136 82.2344 231.25 82.2344 236.136V239.545H41.8707V232.591H74.0526C74.0526 229.636 73.4616 227 72.2798 224.682C71.1207 222.364 69.4616 220.534 67.3026 219.193C65.1662 217.852 62.6435 217.182 59.7344 217.182C56.5298 217.182 53.7571 217.977 51.4162 219.568C49.098 221.136 47.3139 223.182 46.0639 225.705C44.8139 228.227 44.1889 230.932 44.1889 233.818V238.455C44.1889 242.409 44.8707 245.761 46.2344 248.511C47.6207 251.239 49.5412 253.318 51.9957 254.75C54.4503 256.159 57.3026 256.864 60.5526 256.864C62.6662 256.864 64.5753 256.568 66.2798 255.977C68.0071 255.364 69.4957 254.455 70.7457 253.25C71.9957 252.023 72.9616 250.5 73.6435 248.682L81.4162 250.864C80.598 253.5 79.223 255.818 77.2912 257.818C75.3594 259.795 72.973 261.341 70.1321 262.455C67.2912 263.545 64.098 264.091 60.5526 264.091ZM135.697 210.636L116.334 263H108.152L88.7884 210.636H97.5156L111.97 252.364H112.516L126.97 210.636H135.697ZM160.132 264.227C156.814 264.227 153.803 263.602 151.098 262.352C148.393 261.08 146.246 259.25 144.655 256.864C143.064 254.455 142.268 251.545 142.268 248.136C142.268 245.136 142.859 242.705 144.041 240.841C145.223 238.955 146.803 237.477 148.78 236.409C150.757 235.341 152.939 234.545 155.325 234.023C157.734 233.477 160.155 233.045 162.587 232.727C165.768 232.318 168.348 232.011 170.325 231.807C172.325 231.58 173.78 231.205 174.689 230.682C175.621 230.159 176.087 229.25 176.087 227.955V227.682C176.087 224.318 175.166 221.705 173.325 219.841C171.507 217.977 168.746 217.045 165.041 217.045C161.2 217.045 158.189 217.886 156.007 219.568C153.825 221.25 152.291 223.045 151.405 224.955L143.768 222.227C145.132 219.045 146.95 216.568 149.223 214.795C151.518 213 154.018 211.75 156.723 211.045C159.45 210.318 162.132 209.955 164.768 209.955C166.45 209.955 168.382 210.159 170.564 210.568C172.768 210.955 174.893 211.761 176.939 212.989C179.007 214.216 180.723 216.068 182.087 218.545C183.45 221.023 184.132 224.341 184.132 228.5V263H176.087V255.909H175.678C175.132 257.045 174.223 258.261 172.95 259.557C171.678 260.852 169.984 261.955 167.871 262.864C165.757 263.773 163.178 264.227 160.132 264.227ZM161.359 257C164.541 257 167.223 256.375 169.405 255.125C171.609 253.875 173.268 252.261 174.382 250.284C175.518 248.307 176.087 246.227 176.087 244.045V236.682C175.746 237.091 174.996 237.466 173.837 237.807C172.7 238.125 171.382 238.409 169.882 238.659C168.405 238.886 166.962 239.091 165.553 239.273C164.166 239.432 163.041 239.568 162.178 239.682C160.087 239.955 158.132 240.398 156.314 241.011C154.518 241.602 153.064 242.5 151.95 243.705C150.859 244.886 150.314 246.5 150.314 248.545C150.314 251.341 151.348 253.455 153.416 254.886C155.507 256.295 158.155 257 161.359 257ZM206.862 231.5V263H198.817V210.636H206.589V218.818H207.271C208.499 216.159 210.362 214.023 212.862 212.409C215.362 210.773 218.589 209.955 222.544 209.955C226.089 209.955 229.192 210.682 231.851 212.136C234.51 213.568 236.578 215.75 238.055 218.682C239.533 221.591 240.271 225.273 240.271 229.727V263H232.226V230.273C232.226 226.159 231.158 222.955 229.021 220.659C226.885 218.341 223.953 217.182 220.226 217.182C217.658 217.182 215.362 217.739 213.339 218.852C211.339 219.966 209.76 221.591 208.601 223.727C207.442 225.864 206.862 228.455 206.862 231.5ZM276.246 264.091C271.337 264.091 267.109 262.932 263.564 260.614C260.018 258.295 257.291 255.102 255.382 251.034C253.473 246.966 252.518 242.318 252.518 237.091C252.518 231.773 253.496 227.08 255.45 223.011C257.428 218.92 260.178 215.727 263.7 213.432C267.246 211.114 271.382 209.955 276.109 209.955C279.791 209.955 283.109 210.636 286.064 212C289.018 213.364 291.439 215.273 293.325 217.727C295.212 220.182 296.382 223.045 296.837 226.318H288.791C288.178 223.932 286.814 221.818 284.7 219.977C282.609 218.114 279.791 217.182 276.246 217.182C273.109 217.182 270.359 218 267.996 219.636C265.655 221.25 263.825 223.534 262.507 226.489C261.212 229.42 260.564 232.864 260.564 236.818C260.564 240.864 261.2 244.386 262.473 247.386C263.768 250.386 265.587 252.716 267.928 254.375C270.291 256.034 273.064 256.864 276.246 256.864C278.337 256.864 280.234 256.5 281.939 255.773C283.643 255.045 285.087 254 286.268 252.636C287.45 251.273 288.291 249.636 288.791 247.727H296.837C296.382 250.818 295.257 253.602 293.462 256.08C291.689 258.534 289.337 260.489 286.405 261.943C283.496 263.375 280.109 264.091 276.246 264.091ZM341.598 241.591V210.636H349.643V263H341.598V254.136H341.053C339.825 256.795 337.916 259.057 335.325 260.92C332.734 262.761 329.462 263.682 325.507 263.682C322.234 263.682 319.325 262.966 316.78 261.534C314.234 260.08 312.234 257.898 310.78 254.989C309.325 252.057 308.598 248.364 308.598 243.909V210.636H316.643V243.364C316.643 247.182 317.712 250.227 319.848 252.5C322.007 254.773 324.757 255.909 328.098 255.909C330.098 255.909 332.132 255.398 334.2 254.375C336.291 253.352 338.041 251.784 339.45 249.67C340.882 247.557 341.598 244.864 341.598 241.591ZM364.379 263V210.636H372.152V218.545H372.697C373.652 215.955 375.379 213.852 377.879 212.239C380.379 210.625 383.197 209.818 386.334 209.818C386.925 209.818 387.663 209.83 388.55 209.852C389.436 209.875 390.107 209.909 390.561 209.955V218.136C390.288 218.068 389.663 217.966 388.686 217.83C387.732 217.67 386.72 217.591 385.652 217.591C383.107 217.591 380.834 218.125 378.834 219.193C376.857 220.239 375.288 221.693 374.129 223.557C372.993 225.398 372.425 227.5 372.425 229.864V263H364.379ZM420.459 264.091C415.413 264.091 411.061 262.977 407.402 260.75C403.766 258.5 400.959 255.364 398.982 251.341C397.027 247.295 396.05 242.591 396.05 237.227C396.05 231.864 397.027 227.136 398.982 223.045C400.959 218.932 403.709 215.727 407.232 213.432C410.777 211.114 414.913 209.955 419.641 209.955C422.368 209.955 425.061 210.409 427.72 211.318C430.379 212.227 432.8 213.705 434.982 215.75C437.163 217.773 438.902 220.455 440.197 223.795C441.493 227.136 442.141 231.25 442.141 236.136V239.545H401.777V232.591H433.959C433.959 229.636 433.368 227 432.186 224.682C431.027 222.364 429.368 220.534 427.209 219.193C425.072 217.852 422.55 217.182 419.641 217.182C416.436 217.182 413.663 217.977 411.322 219.568C409.004 221.136 407.22 223.182 405.97 225.705C404.72 228.227 404.095 230.932 404.095 233.818V238.455C404.095 242.409 404.777 245.761 406.141 248.511C407.527 251.239 409.447 253.318 411.902 254.75C414.357 256.159 417.209 256.864 420.459 256.864C422.572 256.864 424.482 256.568 426.186 255.977C427.913 255.364 429.402 254.455 430.652 253.25C431.902 252.023 432.868 250.5 433.55 248.682L441.322 250.864C440.504 253.5 439.129 255.818 437.197 257.818C435.266 259.795 432.879 261.341 430.038 262.455C427.197 263.545 424.004 264.091 420.459 264.091ZM477.152 210.636V217.455H450.016V210.636H477.152ZM457.925 198.091H465.97V248C465.97 250.273 466.3 251.977 466.959 253.114C467.641 254.227 468.504 254.977 469.55 255.364C470.618 255.727 471.743 255.909 472.925 255.909C473.811 255.909 474.538 255.864 475.107 255.773C475.675 255.659 476.129 255.568 476.47 255.5L478.107 262.727C477.561 262.932 476.8 263.136 475.822 263.341C474.845 263.568 473.607 263.682 472.107 263.682C469.834 263.682 467.607 263.193 465.425 262.216C463.266 261.239 461.47 259.75 460.038 257.75C458.629 255.75 457.925 253.227 457.925 250.182V198.091ZM509.964 264.091C505.237 264.091 501.089 262.966 497.521 260.716C493.976 258.466 491.203 255.318 489.203 251.273C487.226 247.227 486.237 242.5 486.237 237.091C486.237 231.636 487.226 226.875 489.203 222.807C491.203 218.739 493.976 215.58 497.521 213.33C501.089 211.08 505.237 209.955 509.964 209.955C514.692 209.955 518.828 211.08 522.374 213.33C525.942 215.58 528.714 218.739 530.692 222.807C532.692 226.875 533.692 231.636 533.692 237.091C533.692 242.5 532.692 247.227 530.692 251.273C528.714 255.318 525.942 258.466 522.374 260.716C518.828 262.966 514.692 264.091 509.964 264.091ZM509.964 256.864C513.555 256.864 516.51 255.943 518.828 254.102C521.146 252.261 522.862 249.841 523.976 246.841C525.089 243.841 525.646 240.591 525.646 237.091C525.646 233.591 525.089 230.33 523.976 227.307C522.862 224.284 521.146 221.841 518.828 219.977C516.51 218.114 513.555 217.182 509.964 217.182C506.374 217.182 503.419 218.114 501.101 219.977C498.783 221.841 497.067 224.284 495.953 227.307C494.839 230.33 494.283 233.591 494.283 237.091C494.283 240.591 494.839 243.841 495.953 246.841C497.067 249.841 498.783 252.261 501.101 254.102C503.419 255.943 506.374 256.864 509.964 256.864ZM554.018 231.5V263H545.973V210.636H553.746V218.818H554.428C555.655 216.159 557.518 214.023 560.018 212.409C562.518 210.773 565.746 209.955 569.7 209.955C573.246 209.955 576.348 210.682 579.007 212.136C581.666 213.568 583.734 215.75 585.212 218.682C586.689 221.591 587.428 225.273 587.428 229.727V263H579.382V230.273C579.382 226.159 578.314 222.955 576.178 220.659C574.041 218.341 571.109 217.182 567.382 217.182C564.814 217.182 562.518 217.739 560.496 218.852C558.496 219.966 556.916 221.591 555.757 223.727C554.598 225.864 554.018 228.455 554.018 231.5Z" fill="white"/>
</mask>
<g mask="url(#mask0_21_4)">
<ellipse cx="312.558" cy="230.113" rx="290" ry="110.5" transform="rotate(-27 312.558 230.113)" fill="white"/>
</g>
</g>
<defs>
<filter id="filter0_d_21_4" x="31.9091" y="198.091" width="559.284" height="74.1364" filterUnits="userSpaceOnUse" color-interpolation-filters="sRGB">
<feFlood flood-opacity="0" result="BackgroundImageFix"/>
<feColorMatrix in="SourceAlpha" type="matrix" values="0 0 0 0 0 0 0 0 0 0 0 0 0 0 0 0 0 0 127 0" result="hardAlpha"/>
<feOffset dy="4"/>
<feGaussianBlur stdDeviation="2"/>
<feComposite in2="hardAlpha" operator="out"/>
<feColorMatrix type="matrix" values="0 0 0 0 0 0 0 0 0 0 0 0 0 0 0 0 0 0 0.25 0"/>
<feBlend mode="normal" in2="BackgroundImageFix" result="effect1_dropShadow_21_4"/>
<feBlend mode="normal" in="SourceGraphic" in2="effect1_dropShadow_21_4" result="shape"/>
</filter>
<filter id="filter1_f_21_4" x="42.2921" y="58.7039" width="540.532" height="342.819" filterUnits="userSpaceOnUse" color-interpolation-filters="sRGB">
<feFlood flood-opacity="0" result="BackgroundImageFix"/>
<feBlend mode="normal" in="SourceGraphic" in2="BackgroundImageFix" result="shape"/>
<feGaussianBlur stdDeviation="3.5" result="effect1_foregroundBlur_21_4"/>
</filter>
<filter id="filter2_d_21_4" x="45.2921" y="198.091" width="534.532" height="74.1364" filterUnits="userSpaceOnUse" color-interpolation-filters="sRGB">
<feFlood flood-opacity="0" result="BackgroundImageFix"/>
<feColorMatrix in="SourceAlpha" type="matrix" values="0 0 0 0 0 0 0 0 0 0 0 0 0 0 0 0 0 0 127 0" result="hardAlpha"/>
<feOffset dy="4"/>
<feGaussianBlur stdDeviation="2"/>
<feComposite in2="hardAlpha" operator="out"/>
<feColorMatrix type="matrix" values="0 0 0 0 0 0 0 0 0 0 0 0 0 0 0 0 0 0 0.25 0"/>
<feBlend mode="normal" in2="BackgroundImageFix" result="effect1_dropShadow_21_4"/>
<feBlend mode="normal" in="SourceGraphic" in2="effect1_dropShadow_21_4" result="shape"/>
</filter>
</defs>
</svg>
