<svg width="46" height="48" viewBox="0 0 46 48" fill="none" xmlns="http://www.w3.org/2000/svg">
<path d="M21.0118 2.22331C21.2712 -0.154137 24.7288 -0.154129 24.9882 2.22331L25.7759 9.44315C25.9626 11.1544 28.0803 11.846 29.241 10.5748L34.0067 5.3556C35.5951 3.61602 38.36 5.57454 37.2458 7.6501L32.9273 15.6952C32.1894 17.0697 33.2395 18.7223 34.7973 18.6382L43.4209 18.1726C45.7075 18.0491 46.3736 21.2422 44.2284 22.0433L35.4446 25.3231C34.0427 25.8466 33.6912 27.6677 34.7974 28.6753L41.8982 35.1433C43.6125 36.7048 41.7407 39.4437 39.6631 38.4138L32.7128 34.9683C31.2344 34.2354 29.5546 35.5072 29.8588 37.1289L31.3663 45.1654C31.8055 47.5068 28.5174 48.5166 27.5667 46.3323L24.8338 40.0533C24.1364 38.4509 21.8636 38.4509 21.1662 40.0533L18.4333 46.3323C17.4826 48.5166 14.1945 47.5068 14.6337 45.1654L16.1412 37.1289C16.4454 35.5072 14.7656 34.2354 13.2872 34.9683L6.33689 38.4138C4.25926 39.4437 2.38749 36.7048 4.10181 35.1433L11.2026 28.6753C12.3089 27.6677 11.9573 25.8466 10.5554 25.3231L1.77163 22.0433C-0.373646 21.2422 0.292464 18.0491 2.57909 18.1726L11.2027 18.6382C12.7605 18.7223 13.8106 17.0697 13.0727 15.6952L8.75417 7.6501C7.64003 5.57454 10.4048 3.61601 11.9933 5.35559L16.759 10.5748C17.9197 11.846 20.0374 11.1544 20.2241 9.44315L21.0118 2.22331Z" fill="#C56D07" fill-opacity="0.88"/>
</svg>
