<svg width="185" height="173" viewBox="0 0 185 173" fill="none" xmlns="http://www.w3.org/2000/svg">
<path d="M90.5189 2.32248C90.8372 0.0211973 94.1628 0.0211897 94.4811 2.32247L102.291 58.7808C102.508 60.3515 104.379 61.0568 105.579 60.0203L150.058 21.5993C151.829 20.0698 154.335 22.3038 153.019 24.2381L120.808 71.5671C119.883 72.927 120.903 74.7605 122.547 74.6905L182.06 72.156C184.418 72.0556 184.974 75.406 182.71 76.0727L126.067 92.755C124.47 93.2253 124.113 95.3265 125.465 96.2978L172.686 130.223C174.596 131.596 172.981 134.567 170.791 133.71L115.406 112.055C113.903 111.467 112.358 112.81 112.732 114.38L125.87 169.624C126.409 171.889 123.298 173.092 122.173 171.053L94.2511 120.453C93.4905 119.075 91.5095 119.075 90.7489 120.453L62.8268 171.053C61.7021 173.092 58.5914 171.889 59.13 169.624L72.2682 114.38C72.6416 112.81 71.0973 111.467 69.5942 112.055L14.2094 133.71C12.0187 134.567 10.4039 131.596 12.3142 130.223L59.5349 96.2978C60.8867 95.3265 60.5297 93.2253 58.9329 92.755L2.28999 76.0727C0.0262785 75.406 0.582408 72.0556 2.94012 72.156L62.4531 74.6905C64.0966 74.7605 65.1171 72.927 64.1916 71.5671L31.9813 24.2381C30.6648 22.3038 33.1714 20.0698 34.9421 21.5993L79.4208 60.0203C80.6208 61.0568 82.4921 60.3515 82.7093 58.7808L90.5189 2.32248Z" fill="#C56D07" fill-opacity="0.88"/>
</svg>
